<svg width="100" height="100" xmlns="http://www.w3.org/2000/svg">
  <defs>
    <linearGradient id="grad3" x1="0%" y1="0%" x2="100%" y2="100%">
      <stop offset="0%" style="stop-color:#d4af37;stop-opacity:1" />
      <stop offset="100%" style="stop-color:#2c1810;stop-opacity:1" />
    </linearGradient>
  </defs>
  
  <circle cx="50" cy="50" r="50" fill="url(#grad3)"/>
  
  <!-- Couple silhouettes -->
  <!-- Female -->
  <circle cx="40" cy="35" r="10" fill="#2c1810" opacity="0.4"/>
  <circle cx="37" cy="32" r="1.5" fill="#2c1810"/>
  <circle cx="43" cy="32" r="1.5" fill="#2c1810"/>
  <path d="M 30 30 Q 40 25 50 30 Q 50 35 45 40 Q 40 35 35 40 Q 30 35 30 30" 
        fill="#2c1810" opacity="0.3"/>
  
  <!-- Male -->
  <circle cx="60" cy="40" r="10" fill="#2c1810" opacity="0.4"/>
  <circle cx="57" cy="37" r="1.5" fill="#2c1810"/>
  <circle cx="63" cy="37" r="1.5" fill="#2c1810"/>
  <path d="M 55 35 Q 60 30 65 35 Q 65 40 60 45 Q 55 40 55 35" 
        fill="#2c1810" opacity="0.3"/>
  
  <!-- Heart symbol -->
  <path d="M 50 60 Q 45 55 40 60 Q 40 65 50 75 Q 60 65 60 60 Q 55 55 50 60" 
        fill="#d4af37" opacity="0.8"/>
        
  <!-- Decorative elements -->
  <circle cx="25" cy="75" r="2" fill="#8b4513" opacity="0.6"/>
  <circle cx="75" cy="25" r="2" fill="#8b4513" opacity="0.6"/>
</svg>